<svg width="25" height="25" viewBox="0 0 25 25" fill="none" xmlns="http://www.w3.org/2000/svg">
<path d="M12.5 9.52344C11.9113 9.52366 11.336 9.69842 10.8466 10.0256C10.3573 10.3528 9.97593 10.8178 9.75081 11.3617C9.52569 11.9056 9.46691 12.5041 9.58188 13.0814C9.69686 13.6587 9.98044 14.189 10.3968 14.6051C10.8131 15.0213 11.3435 15.3047 11.9208 15.4195C12.4982 15.5342 13.0966 15.4752 13.6405 15.2499C14.1843 15.0246 14.6491 14.643 14.9761 14.1536C15.3031 13.6641 15.4777 13.0887 15.4777 12.5C15.4771 11.7106 15.1631 10.9536 14.6048 10.3955C14.0465 9.83739 13.2894 9.52373 12.5 9.52344ZM19.4593 7.23549C19.3077 6.85148 19.0789 6.50269 18.787 6.21077C18.4951 5.91886 18.1463 5.69004 17.7623 5.5385C16.5904 5.07589 13.8002 5.17969 12.5 5.17969C11.1998 5.17969 8.41239 5.07199 7.23717 5.5385C6.85315 5.69004 6.50436 5.91886 6.21245 6.21077C5.92053 6.50269 5.69171 6.85148 5.54018 7.23549C5.07812 8.40737 5.18136 11.2003 5.18136 12.4994C5.18136 13.7986 5.07813 16.5882 5.54241 17.764C5.69394 18.148 5.92276 18.4968 6.21468 18.7887C6.5066 19.0806 6.85538 19.3094 7.2394 19.4609C8.41127 19.9235 11.2015 19.8198 12.5022 19.8198C13.803 19.8198 16.5893 19.9275 17.7645 19.4609C18.1485 19.3094 18.4973 19.0806 18.7892 18.7887C19.0811 18.4968 19.31 18.148 19.4615 17.764C19.9275 16.5921 19.8203 13.7991 19.8203 12.5C19.8203 11.2009 19.9275 8.41183 19.4615 7.23605L19.4593 7.23549ZM12.5 17.0759C11.595 17.0759 10.7103 16.8075 9.95777 16.3047C9.20527 15.8019 8.61877 15.0873 8.27243 14.2511C7.92609 13.415 7.83547 12.4949 8.01203 11.6073C8.18859 10.7197 8.62441 9.90431 9.26436 9.26436C9.90431 8.62441 10.7197 8.18859 11.6073 8.01203C12.4949 7.83547 13.415 7.92609 14.2511 8.27243C15.0873 8.61877 15.8019 9.20527 16.3047 9.95777C16.8075 10.7103 17.0759 11.595 17.0759 12.5C17.0766 13.1011 16.9588 13.6965 16.7291 14.252C16.4994 14.8075 16.1623 15.3122 15.7373 15.7373C15.3122 16.1623 14.8075 16.4994 14.252 16.7291C13.6965 16.9588 13.1011 17.0766 12.5 17.0759ZM17.2645 8.80022C17.0532 8.80033 16.8467 8.73779 16.671 8.62049C16.4952 8.5032 16.3583 8.33642 16.2773 8.14127C16.1964 7.94611 16.1752 7.73134 16.2163 7.52411C16.2575 7.31689 16.3592 7.12652 16.5085 6.97709C16.6579 6.82766 16.8482 6.72588 17.0554 6.68463C17.2626 6.64337 17.4774 6.66449 17.6726 6.74531C17.8678 6.82614 18.0346 6.96304 18.152 7.13869C18.2694 7.31435 18.332 7.52087 18.332 7.73214C18.3326 7.87244 18.3055 8.01147 18.2522 8.14127C18.199 8.27106 18.1206 8.38906 18.0216 8.4885C17.9227 8.58794 17.805 8.66686 17.6755 8.72074C17.5459 8.77461 17.407 8.80238 17.2667 8.80246L17.2645 8.80022ZM22.3214 0H2.67857C1.96817 0 1.28686 0.282206 0.784535 0.784536C0.282206 1.28687 0 1.96817 0 2.67857L0 22.3214C0 23.0318 0.282206 23.7131 0.784535 24.2155C1.28686 24.7178 1.96817 25 2.67857 25H22.3214C23.0318 25 23.7131 24.7178 24.2155 24.2155C24.7178 23.7131 25 23.0318 25 22.3214V2.67857C25 1.96817 24.7178 1.28687 24.2155 0.784536C23.7131 0.282206 23.0318 0 22.3214 0ZM21.3661 16.183C21.2941 17.6133 20.9676 18.8806 19.9235 19.9219C18.8795 20.9632 17.6133 21.2963 16.1847 21.3644C14.7109 21.4475 10.2924 21.4475 8.81864 21.3644C7.38839 21.2924 6.12556 20.9654 5.0798 19.9219C4.03404 18.8783 3.70536 17.6105 3.63728 16.183C3.55413 14.7087 3.55413 10.2896 3.63728 8.81697C3.70926 7.38672 4.03181 6.11942 5.0798 5.07813C6.12779 4.03683 7.39397 3.70759 8.81864 3.63951C10.2924 3.55636 14.7109 3.55636 16.1847 3.63951C17.615 3.7115 18.8817 4.0385 19.9235 5.08203C20.9654 6.12556 21.298 7.39342 21.3661 8.82366C21.4492 10.2924 21.4492 14.7076 21.3661 16.183Z" fill="#918E9B"/>
</svg>
